<svg width="37" height="37" viewBox="0 0 37 37" fill="none" xmlns="http://www.w3.org/2000/svg">
<circle cx="18.5" cy="18.5" r="18.5" fill="black"/>
<path d="M18.5708 7.82465C15.6508 7.82465 15.2847 7.83704 14.1379 7.88938C12.9936 7.94162 12.212 8.12352 11.5281 8.38944C10.8211 8.66439 10.2216 9.03229 9.62387 9.6304C9.02615 10.2285 8.6585 10.8286 8.38377 11.5361C8.11797 12.2204 7.93626 13.0025 7.88399 14.1476C7.83169 15.2952 7.81934 15.6616 7.81934 18.5836C7.81934 21.5054 7.83169 21.8718 7.88399 23.0194C7.93626 24.1646 8.11797 24.9466 8.38377 25.631C8.65853 26.3385 9.02618 26.9385 9.62387 27.5366C10.2216 28.1347 10.8211 28.5026 11.5281 28.7776C12.212 29.0435 12.9936 29.2254 14.1379 29.2777C15.2847 29.33 15.6508 29.3424 18.5708 29.3424C21.4906 29.3424 21.8568 29.33 23.0035 29.2777C24.1479 29.2254 24.9295 29.0435 25.6133 28.7776C26.3203 28.5026 26.9199 28.1347 27.5176 27.5366C28.1153 26.9385 28.483 26.3385 28.7577 25.631C29.0235 24.9466 29.2053 24.1646 29.2575 23.0194C29.3098 21.8718 29.3222 21.5054 29.3222 18.5836C29.3222 15.6616 29.3098 15.2952 29.2575 14.1476C29.2053 13.0025 29.0235 12.2204 28.7577 11.5361C28.483 10.8286 28.1153 10.2285 27.5176 9.6304C26.9199 9.03229 26.3203 8.66439 25.6133 8.38944C24.9295 8.12352 24.1479 7.94162 23.0035 7.88938C21.8568 7.83704 21.4906 7.82465 18.5708 7.82465ZM18.5708 9.76317C21.4415 9.76317 21.7815 9.77415 22.9152 9.82592C23.9635 9.87374 24.5328 10.049 24.9116 10.1963C25.4135 10.3915 25.7716 10.6247 26.1478 11.0011C26.5241 11.3776 26.757 11.7361 26.9521 12.2382C27.0993 12.6173 27.2745 13.187 27.3223 14.236C27.374 15.3705 27.385 15.7108 27.385 18.5835C27.385 21.4562 27.374 21.7965 27.3223 22.931C27.2745 23.98 27.0993 24.5497 26.9521 24.9288C26.757 25.431 26.5241 25.7894 26.1478 26.1659C25.7716 26.5424 25.4135 26.7755 24.9116 26.9707C24.5328 27.118 23.9635 27.2933 22.9152 27.3411C21.7817 27.3929 21.4417 27.4039 18.5707 27.4039C15.6998 27.4039 15.3598 27.3929 14.2263 27.3411C13.178 27.2933 12.6087 27.118 12.2299 26.9707C11.728 26.7755 11.3699 26.5424 10.9937 26.1659C10.6174 25.7894 10.3845 25.431 10.1894 24.9288C10.0422 24.5497 9.86704 23.98 9.81922 22.931C9.76749 21.7965 9.75651 21.4562 9.75651 18.5835C9.75651 15.7108 9.76749 15.3705 9.81922 14.236C9.86704 13.187 10.0422 12.6173 10.1894 12.2383C10.3845 11.736 10.6174 11.3776 10.9936 11.0012C11.3699 10.6247 11.728 10.3915 12.2299 10.1963C12.6087 10.049 13.178 9.87374 14.2263 9.82592C15.36 9.77415 15.7 9.76317 18.5707 9.76317" fill="white"/>
<path d="M18.5708 22.1698C16.5915 22.1698 14.987 20.5641 14.987 18.5835C14.987 16.6028 16.5915 14.9972 18.5708 14.9972C20.5501 14.9972 22.1546 16.6028 22.1546 18.5835C22.1546 20.5641 20.5501 22.1698 18.5708 22.1698ZM18.5708 13.0586C15.5216 13.0586 13.0498 15.5322 13.0498 18.5835C13.0498 21.6347 15.5216 24.1083 18.5708 24.1083C21.62 24.1083 24.0918 21.6347 24.0918 18.5835C24.0918 15.5322 21.62 13.0586 18.5708 13.0586ZM25.6001 12.8403C25.6001 13.5534 25.0225 14.1314 24.3099 14.1314C23.5974 14.1314 23.0198 13.5534 23.0198 12.8403C23.0198 12.1273 23.5974 11.5493 24.3099 11.5493C25.0225 11.5493 25.6001 12.1273 25.6001 12.8403Z" fill="white"/>
</svg>
