<svg width="27" height="27" viewBox="0 0 27 27" fill="none" xmlns="http://www.w3.org/2000/svg">
<circle cx="13.5" cy="13.5" r="13.5" fill="white"/>
<path d="M13.5515 5.70984C11.4207 5.70984 11.1535 5.71888 10.3167 5.75708C9.48161 5.7952 8.91129 5.92794 8.41224 6.12199C7.89632 6.32263 7.45879 6.5911 7.02263 7.02755C6.58646 7.46401 6.31817 7.90189 6.1177 8.41817C5.92374 8.91755 5.79114 9.48826 5.75299 10.3239C5.71483 11.1613 5.70581 11.4287 5.70581 13.5609C5.70581 15.6931 5.71483 15.9605 5.75299 16.7979C5.79114 17.6336 5.92374 18.2043 6.1177 18.7036C6.3182 19.2199 6.58648 19.6578 7.02263 20.0943C7.45881 20.5307 7.89632 20.7992 8.41224 20.9998C8.91129 21.1939 9.48161 21.3266 10.3167 21.3647C11.1535 21.4029 11.4207 21.412 13.5515 21.412C15.6822 21.412 15.9494 21.4029 16.7862 21.3647C17.6213 21.3266 18.1916 21.1939 18.6906 20.9998C19.2065 20.7992 19.6441 20.5307 20.0803 20.0943C20.5164 19.6578 20.7847 19.2199 20.9852 18.7036C21.1791 18.2043 21.3118 17.6336 21.3498 16.7979C21.388 15.9605 21.3971 15.6931 21.3971 13.5609C21.3971 11.4287 21.388 11.1613 21.3498 10.3239C21.3118 9.48826 21.1791 8.91755 20.9852 8.41817C20.7847 7.90189 20.5164 7.46401 20.0803 7.02755C19.6441 6.5911 19.2065 6.32263 18.6906 6.12199C18.1916 5.92794 17.6213 5.7952 16.7862 5.75708C15.9494 5.71888 15.6822 5.70984 13.5515 5.70984ZM13.5515 7.12444C15.6463 7.12444 15.8944 7.13245 16.7217 7.17022C17.4867 7.20512 17.9021 7.33302 18.1785 7.44054C18.5448 7.58298 18.8061 7.75309 19.0807 8.02783C19.3552 8.30256 19.5252 8.56411 19.6676 8.93056C19.775 9.20721 19.9028 9.62294 19.9377 10.3884C19.9754 11.2163 19.9834 11.4646 19.9834 13.5609C19.9834 15.6572 19.9754 15.9055 19.9377 16.7334C19.9028 17.4989 19.775 17.9146 19.6676 18.1912C19.5252 18.5577 19.3552 18.8193 19.0807 19.094C18.8061 19.3687 18.5448 19.5388 18.1786 19.6813C17.9021 19.7888 17.4867 19.9167 16.7217 19.9516C15.8946 19.9894 15.6465 19.9974 13.5514 19.9974C11.4564 19.9974 11.2083 19.9894 10.3811 19.9516C9.61617 19.9167 9.20076 19.7888 8.92432 19.6813C8.55808 19.5388 8.29673 19.3687 8.02221 19.094C7.74767 18.8193 7.57765 18.5577 7.43531 18.1913C7.32787 17.9146 7.20008 17.4989 7.16518 16.7334C7.12744 15.9055 7.11943 15.6572 7.11943 13.5609C7.11943 11.4646 7.12744 11.2163 7.16518 10.3884C7.20008 9.62292 7.32787 9.20721 7.43531 8.93059C7.57765 8.56409 7.74767 8.30256 8.02219 8.02785C8.29673 7.75309 8.5581 7.58298 8.9243 7.44054C9.20076 7.33302 9.6162 7.20512 10.3811 7.17022C11.2084 7.13245 11.4566 7.12444 13.5514 7.12444" fill="#100F0D"/>
<path d="M13.5518 16.178C12.1074 16.178 10.9366 15.0063 10.9366 13.5609C10.9366 12.1156 12.1074 10.9439 13.5518 10.9439C14.9961 10.9439 16.167 12.1156 16.167 13.5609C16.167 15.0063 14.9961 16.178 13.5518 16.178ZM13.5518 9.52929C11.3267 9.52929 9.52295 11.3343 9.52295 13.5609C9.52295 15.7875 11.3267 17.5925 13.5518 17.5925C15.7769 17.5925 17.5806 15.7875 17.5806 13.5609C17.5806 11.3343 15.7769 9.52929 13.5518 9.52929M18.6813 9.37C18.6813 9.89035 18.2597 10.3121 17.7398 10.3121C17.2199 10.3121 16.7983 9.89035 16.7983 9.37C16.7983 8.84968 17.2199 8.42786 17.7398 8.42786C18.2597 8.42786 18.6813 8.84968 18.6813 9.37" fill="#100F0D"/>
</svg>
